<svg width="28" height="25" viewBox="0 0 28 25" fill="none" xmlns="http://www.w3.org/2000/svg">
<path d="M0 7.97312V16.6851H5.48692L18.8825 25V0L5.48692 7.97287L0 7.97312ZM1.17903 15.5136V9.14429H4.91552V15.5136H1.17903ZM6.09455 15.6847V8.97314L17.7032 2.05432V22.8833L6.09455 15.6847Z" fill="white"/>
<path d="M23.1361 2.86555C23 2.76645 22.8277 2.72141 22.6645 2.75744C22.5012 2.79348 22.3652 2.88356 22.2745 3.0187C22.1747 3.15383 22.1475 3.30698 22.1747 3.46014C22.2019 3.60428 22.2836 3.74842 22.4105 3.8295C23.4898 4.6313 26.9996 7.60421 26.7638 12.352C26.5643 16.3519 23.7891 18.8564 22.9456 19.523C22.6917 19.7212 22.6373 20.0906 22.8277 20.3698C22.9365 20.514 23.0907 20.6041 23.254 20.6131H23.3175C23.4626 20.6131 23.5895 20.568 23.6893 20.478C24.6415 19.7212 27.7523 16.8924 27.9882 12.415C28.2421 7.0547 24.3423 3.74852 23.1361 2.86555Z" fill="white"/>
<path d="M21.1228 5.96418C20.9868 5.86509 20.8054 5.82004 20.6421 5.85608C20.4698 5.89211 20.3247 5.99121 20.234 6.13535L20.2159 6.17139V6.1894C20.0889 6.44165 20.1615 6.76597 20.3882 6.94615C21.0412 7.44164 23.1816 9.27944 23.0273 12.1893C22.9094 14.4415 21.5219 15.9189 20.7056 16.5946C20.4607 16.8018 20.4154 17.1532 20.6149 17.4234L20.624 17.4324C20.7237 17.5585 20.8688 17.6396 21.0321 17.6576H21.0956C21.2407 17.6576 21.3858 17.6036 21.4765 17.5225C22.2564 16.8919 24.0884 15.1171 24.2335 12.2433C24.4149 8.7388 21.9028 6.54973 21.1228 5.96418Z" fill="white"/>
</svg>
